<?xml version="1.0"?>
<svg xmlns="http://www.w3.org/2000/svg" id="Capa_1" enable-background="new 0 0 512 512" height="512px" viewBox="0 0 512 512" width="512px" class=""><g><path d="m188.243 203.297v-64.663c-31.202 4.254-66.866 11.251-94.536 22.674l-10.194 4.208 3.361 37.78h101.369z" data-original="#000000" class="active-path" data-old_color="#000000" fill="#FFFFFF"/><path d="m218.243 233.297h77.455v130.922h-77.455z" data-original="#000000" class="active-path" data-old_color="#000000" fill="#FFFFFF"/><path d="m218.243 203.297h89.092l-38.158-71.335-9.321.308c-1.676.055-18.316.647-41.612 2.891v68.136z" data-original="#000000" class="active-path" data-old_color="#000000" fill="#FFFFFF"/><path d="m414.636 320.323c-16.464 0-29.857 13.394-29.857 29.857s13.394 29.857 29.857 29.857 29.857-13.394 29.857-29.857-13.393-29.857-29.857-29.857z" data-original="#000000" class="active-path" data-old_color="#000000" fill="#FFFFFF"/><path d="m101.935 320.323c-16.464 0-29.858 13.394-29.858 29.857s13.394 29.857 29.858 29.857c16.463 0 29.856-13.394 29.856-29.857s-13.394-29.857-29.856-29.857z" data-original="#000000" class="active-path" data-old_color="#000000" fill="#FFFFFF"/><path d="m480.957 233.297h-155.259v130.922h30.759c-1.087-4.506-1.679-9.203-1.679-14.039 0-33.005 26.852-59.857 59.857-59.857s59.857 26.852 59.857 59.857c0 4.835-.591 9.533-1.679 14.039h39.187v-79.21c0-22.36-12.587-41.828-31.043-51.712z" data-original="#000000" class="active-path" data-old_color="#000000" fill="#FFFFFF"/><path d="m188.243 233.297h-134.312c-20.049 3.39-38.1 6.902-41.82 7.632l-12.111 2.378v88.96l10.358 3.371c1.301.423 13.342 4.3 31.979 9.069 2.775-30.448 28.437-54.383 59.597-54.383 33.005 0 59.856 26.852 59.856 59.857 0 4.655-.552 9.181-1.562 13.533 6.377.318 12.764.506 19.121.506h8.893v-130.923z" data-original="#000000" class="active-path" data-old_color="#000000" fill="#FFFFFF"/></g> </svg>
