<svg height="425pt" viewBox="0 -30 425.99799 425" width="425pt" xmlns="http://www.w3.org/2000/svg"><path d="m57.027344 49.484375h.488281c10.488281-.011719 18.988281-8.511719 19-19v-10.984375c-.011719-10.488281-8.511719-18.988281-19-19h-.488281c-10.488282.011719-18.988282 8.511719-19 19v10.984375c.011718 10.488281 8.511718 18.988281 19 19zm0 0"/><path d="m96.101562 88.015625h-11.042968l-22.078125 20.71875c-.066407.066406-.140625.117187-.210938.175781-.066406.0625-.121093.109375-.183593.160156-.488282.394532-1.023438.722657-1.601563.972657-.023437.011719-.046875.027343-.070313.035156-.023437.011719-.046874.015625-.070312.027344-.296875.121093-.605469.226562-.917969.308593-.296875.074219-.601562.128907-.910156.164063-.058594.007813-.121094.015625-.183594.019531-.304687.03125-.609375.039063-.914062.027344-.023438 0-.050781 0-.078125-.003906-.28125-.015625-.5625-.050782-.84375-.101563-.058594-.007812-.117188-.019531-.175782-.03125-.300781-.058593-.601562-.136719-.894531-.234375l-.035156-.015625c-.28125-.097656-.554687-.214843-.820313-.351562l-.148437-.070313c-.277344-.148437-.546875-.3125-.804687-.496094-.011719-.007812-.023438-.019531-.035157-.027343-.238281-.175781-.464843-.363281-.679687-.566407-.027344-.027343-.0625-.050781-.09375-.078124l-21.214844-20.632813h-11.820312c-5.730469 0-11.195313 2.425781-15.039063 6.675781s-5.707031 9.933594-5.132813 15.632813c.027344.238281.039063.472656.039063.707031v80.671875c0 4.125 3.34375 7.46875 7.46875 7.46875h.09375c4.199219-.171875 7.484375-3.675781 7.390625-7.878906v-53.59375h14v33.289062h.085938l.175781 7h57.808593l.089844-3.558593v-36.730469h14v33.636719h.082032l-.082032 3.25v17.101562c0 4.132812 3.351563 7.488281 7.488282 7.488281 4.136718 0 7.488281-3.355469 7.488281-7.488281v-80.65625c0-.238281.011719-.472656.035156-.707031.578125-5.699219-1.285156-11.378907-5.125-15.628907-3.84375-4.253906-9.304687-6.679687-15.035156-6.679687zm0 0"/><path d="m33.882812 356.175781c.214844 4.71875 4.15625 8.402344 8.878907 8.296875 4.722656-.105468 8.496093-3.960937 8.5-8.6875v-145.519531h14v145.523437c-.011719 4.746094 3.789062 8.625 8.535156 8.710938s8.683594-3.652344 8.84375-8.398438l4.167969-164.113281h-57.101563zm0 0"/><path d="m366.65625 49.484375h.488281c10.488281-.011719 18.988281-8.511719 19-19v-10.984375c-.011719-10.488281-8.511719-18.988281-19-19h-.488281c-10.488281.011719-18.988281 8.511719-19 19v10.984375c.011719 10.488281 8.511719 18.988281 19 19zm0 0"/><path d="m343.511719 356.175781c.203125 4.726563 4.148437 8.425781 8.878906 8.320313 4.730469-.109375 8.507813-3.976563 8.5-8.710938v-145.519531h14v145.523437c-.011719 4.746094 3.789063 8.625 8.535156 8.710938 4.746094.085938 8.683594-3.652344 8.84375-8.398438l4.167969-164.113281h-57.101562zm0 0"/><path d="m405.738281 88.015625h-11.050781l-22.078125 20.71875c-.066406.066406-.140625.117187-.210937.175781-.066407.0625-.121094.109375-.183594.160156-.488282.394532-1.023438.722657-1.601563.972657-.023437.011719-.042969.027343-.070312.035156-.027344.011719-.046875.015625-.070313.027344-.296875.121093-.605468.226562-.917968.308593-.296876.074219-.601563.128907-.90625.160157-.0625.007812-.121094.015625-.183594.023437-.304688.027344-.609375.039063-.914063.027344-.027343 0-.050781 0-.074219-.007812-.285156-.015626-.566406-.046876-.847656-.097657-.058594-.011719-.117187-.019531-.171875-.03125-.304687-.058593-.605469-.136719-.902343-.238281l-.03125-.011719c-.28125-.097656-.558594-.21875-.828126-.351562l-.140624-.074219c-.28125-.144531-.550782-.3125-.808594-.5-.011719-.007812-.023438-.015625-.035156-.023438-.238282-.175781-.464844-.367187-.679688-.570312-.027344-.027344-.0625-.050781-.09375-.078125l-21.210938-20.636719h-11.824218c-5.730469 0-11.195313 2.425782-15.035156 6.675782-3.84375 4.253906-5.707032 9.933593-5.132813 15.632812.027344.234375.039063.472656.039063.707031v80.671875c-.007813 1.980469.78125 3.882813 2.1875 5.28125 1.410156 1.441406 3.355468 2.234375 5.371093 2.1875 4.199219-.175781 7.484375-3.679687 7.390625-7.878906v-53.585938h14v33.285157h.085938l.175781 7h57.808594l.089843-3.5625v-36.722657h14v33.636719h.082032l-.082032 3.25v17.097657c0 4.136718 3.351563 7.492187 7.488282 7.492187 4.136718 0 7.488281-3.355469 7.488281-7.492187v-80.652344c0-.238282.011719-.472656.035156-.707032.578125-5.699218-1.285156-11.378906-5.128906-15.628906-3.839844-4.246094-9.300781-6.671875-15.03125-6.671875zm0 0"/><path d="m211.84375 49.484375h.484375c10.488281-.011719 18.988281-8.511719 19-19v-10.984375c-.011719-10.488281-8.511719-18.988281-19-19h-.484375c-10.488281.011719-18.988281 8.511719-19 19v10.984375c.011719 10.488281 8.511719 18.988281 19 19zm0 0"/><path d="m250.921875 88.015625h-11.046875l-22.082031 20.71875c-.066407.066406-.140625.117187-.207031.179687-.070313.058594-.121094.097657-.183594.152344-.488282.398438-1.027344.726563-1.605469.976563-.023437.011719-.042969.027343-.070313.035156-.023437.011719-.042968.015625-.066406.023437-.300781.125-.605468.230469-.921875.3125-.296875.074219-.597656.125-.90625.160157-.0625.007812-.121093.015625-.183593.023437-.304688.027344-.609376.035156-.914063.027344-.023437 0-.050781 0-.074219-.007812-.285156-.015626-.566406-.046876-.847656-.097657-.058594-.011719-.117188-.019531-.171875-.03125-.304687-.058593-.605469-.140625-.902344-.238281l-.03125-.011719c-.28125-.101562-.558593-.21875-.824219-.351562-.050781-.027344-.101562-.046875-.144531-.074219-.28125-.148438-.550781-.3125-.808593-.496094l-.035157-.027344c-.238281-.171874-.464843-.363281-.675781-.566406-.03125-.027344-.066406-.050781-.097656-.078125l-21.210938-20.636719h-11.820312c-5.730469 0-11.195313 2.425782-15.039063 6.675782-3.839843 4.253906-5.703125 9.933594-5.128906 15.632812.023437.234375.039063.472656.039063.707032v80.671874c0 4.125 3.34375 7.464844 7.46875 7.46875h.089843c4.199219-.175781 7.484375-3.675781 7.390625-7.878906v-53.589844h14v33.285157h.082032l.179687 7h57.804687l.089844-3.5625v-36.722657h14v33.636719h.085938l-.085938 3.25v17.097657c0 4.136718 3.355469 7.492187 7.492188 7.492187 4.132812 0 7.488281-3.355469 7.488281-7.492187v-80.652344c0-.238282.011719-.472656.035156-.707032.578125-5.703124-1.285156-11.378906-5.128906-15.628906s-9.304687-6.671875-15.03125-6.671875zm0 0"/><path d="m188.695312 356.175781c.214844 4.71875 4.160157 8.402344 8.878907 8.296875 4.722656-.105468 8.496093-3.960937 8.5-8.6875v-145.519531h14v145.523437c-.011719 4.746094 3.789062 8.625 8.535156 8.710938 4.75.085938 8.6875-3.652344 8.847656-8.398438l4.167969-164.113281h-57.097656zm0 0"/></svg>