<?xml version="1.0"?>
<svg xmlns="http://www.w3.org/2000/svg" height="512px" viewBox="0 0 512 512" width="512px" class=""><g><path d="m512 310.699219v-109.398438h-55.277344c-4.609375-16.984375-11.347656-33.238281-20.125-48.539062l39.101563-39.101563-77.355469-77.355468-39.101562 39.097656c-15.304688-8.773438-31.554688-15.511719-48.542969-20.125v-55.277344h-109.398438v55.277344c-16.988281 4.609375-33.238281 11.351562-48.542969 20.125l-39.101562-39.101563-77.355469 77.355469 39.101563 39.101562c-8.773438 15.304688-15.515625 31.554688-20.125 48.542969h-55.277344v109.398438h55.277344c4.609375 16.984375 11.347656 33.238281 20.125 48.539062l-39.101563 39.101563 77.355469 77.355468 39.101562-39.101562c15.304688 8.777344 31.554688 15.515625 48.542969 20.128906v55.277344h109.398438v-55.277344c16.984375-4.609375 33.238281-11.351562 48.539062-20.125l39.101563 39.101563 77.355468-77.355469-39.097656-39.101562c8.773438-15.304688 15.511719-31.554688 20.125-48.542969zm-256 53.054687c-59.511719 0-107.753906-48.242187-107.753906-107.753906s48.242187-107.753906 107.753906-107.753906 107.753906 48.242187 107.753906 107.753906-48.242187 107.753906-107.753906 107.753906zm0 0" data-original="#000000" class="active-path" data-old_color="#000000" fill="#A6C1D3"/></g> </svg>
