<svg height="577pt" viewBox="-34 -18 577 577.17416" width="577pt" xmlns="http://www.w3.org/2000/svg"><path d="m343.945312 353.539062c0-9.828124 7.5-18.414062 16.355469-18.414062h44.414063c8.855468 0 16.625 8.585938 16.625 18.414062v14.042969h19.972656v-14.042969c0-20.835937-16.726562-38.386718-36.589844-38.386718h-44.421875c-19.871093 0-36.328125 17.550781-36.328125 38.386718v14.042969h19.972656zm0 0"/><path d="m275.292969 447.46875v75.300781c0 9.832031 7.03125 18.320313 15.882812 18.320313h186.449219c8.859375 0 16.113281-8.488282 16.113281-18.320313v-75.300781h-71.152343v14.148438c-.058594 2.621093-1.167969 5.113281-3.085938 6.914062-1.910156 1.796875-4.464844 2.753906-7.089844 2.65625h-60.140625c-2.566406.078125-5.042969-.90625-6.855469-2.722656-1.808593-1.808594-2.792968-4.289063-2.714843-6.847656v-14.148438zm0 0"/><path d="m342.699219 414.21875c0-5.511719 4.054687-10.4375 9.570312-10.4375h60.140625c5.636719.195312 10.125 4.796875 10.175782 10.4375v13.28125h86.132812v-32.261719c0-9.824219-6.769531-17.671875-15.628906-17.671875h-217.378906c-8.859376 0-16.648438 7.847656-16.648438 17.671875v32.261719h83.636719zm0 0"/><path d="m362.671875 423.753906h39.941406v27.460938h-39.941406zm0 0"/><path d="m105.527344 94.082031c20.726562-.03125 37.496094-16.875 37.449218-37.597656v-19.046875c0-20.679688-16.765624-37.4492188-37.449218-37.4492188-20.679688 0-37.449219 16.7695308-37.449219 37.4492188v19.042969c-.046875 20.726562 16.71875 37.570312 37.449219 37.601562zm0 0"/><path d="m135.515625 540.589844c9.949219.121094 18.191406-7.695313 18.597656-17.644532l7.507813-225.265624h-108.570313l7.230469 225.3125c.371094 9.980468 8.699219 17.8125 18.683594 17.570312 9.988281-.238281 17.929687-8.457031 17.824218-18.449219v-188.910156c0-5.511719 4.472657-9.984375 9.984376-9.984375 5.515624 0 9.988281 4.472656 9.988281 9.984375v188.910156c.144531 10.253907 8.5 18.484375 18.753906 18.476563zm0 0"/><path d="m-.578125 179.339844v120.210937c-.042969 4.394531 1.636719 8.628907 4.683594 11.800781 2.976562 3.128907 7.085937 4.949219 11.40625 5.050782h.167969c8.878906-1.25 16.199218-8.332032 16.199218-17.601563v-71.105469c0-5.511718 4.472656-9.984374 9.984375-9.984374 5.515625 0 9.988281 4.472656 9.988281 9.984374v32.90625c0 .449219.082032 1.066407.097657 1.53125l.449219 15.574219h109.875l.671874-10.855469v-39.15625c0-5.511718 4.472657-9.984374 9.988282-9.984374s9.984375 4.472656 9.984375 9.984374v32.851563c0 .671875.175781 1.367187.152343 2.074219l-.152343 4.585937v32.308594c0 8.960937 7.265625 16.226563 16.230469 16.226563 8.960937 0 16.226562-7.265626 16.226562-16.226563v-120.175781c0-.335938-.082031-.671875-.050781-1.007813 1.027343-10.394531-2.128907-20.765625-8.765625-28.832031-6.640625-8.066406-16.21875-13.15625-26.613282-14.144531-1.328124-.050781-2.652343-.03125-3.972656.050781h-21.109375l-40.816406 38.054688c-.078125.066406-.164063-.128907-.242187-.054688-.117188.101562-.234376.207031-.355469.304688-.140625.109374-.28125.21875-.429688.320312-.140625.101562-.246093.179688-.382812.269531-.136719.082031-.296875.183594-.449219.269531-.132812.074219-.269531.152344-.398438.222657-.164062.082031-.320312.15625-.480468.226562-.136719.066407-.273438.128907-.410156.175781-.164063.0625-.328126.121094-.496094.179688-.140625.046875-.277344.09375-.414063.128906-.171875.046875-.339843.09375-.511719.132813-.140624.027343-.28125.0625-.429687.085937-.171875.035156-.339844.058594-.511719.082032-.144531.019531-.296875.035156-.445312.050781-.164063.015625-.335938.023437-.496094.027343-.164062.011719-.3125.011719-.460938.011719-.15625 0-.324218-.011719-.488281-.015625-.164062-.007812-.316406-.023437-.480469-.039062-.15625-.019532-.3125-.039063-.464843-.0625-.15625-.023438-.324219-.054688-.484375-.082032-.160156-.035156-.300782-.070312-.457032-.109374-.152343-.039063-.320312-.082032-.472656-.132813-.15625-.046875-.304687-.097656-.449218-.148437-.152344-.054688-.308594-.113282-.460938-.175782-.148438-.058594-.296875-.121094-.449219-.199218-.144531-.074219-.28125-.136719-.421875-.210938-.140625-.078125-.300781-.167969-.449218-.25-.144532-.085938-.261719-.15625-.390626-.238281-.152343-.101563-.296874-.191407-.441406-.300781-.125-.089844-.234375-.152344-.351562-.25-.148438-.117188-.289063-.179688-.425782-.308594-.0625-.058594-.125.015625-.195312-.042969l-39.257812-37.925781h-22.535157c-10.410156-.117188-20.429687 3.933594-27.832031 11.25-7.40625 7.3125-11.578125 17.285156-11.585938 27.695312.015626 1.328125.097657 2.65625.25 3.980469.027344.332031.132813.667969.132813 1.011719zm0 0"/></svg>