<svg height="448pt" viewBox="-11 0 448 448" width="448pt" xmlns="http://www.w3.org/2000/svg"><path d="m55.796875 335.105469 22.644531-22.648438c2.003906-2 4.722656-3.125 7.554688-3.125h74.003906c6.523438.015625 12.894531-1.953125 18.273438-5.640625 8.566406-6.101562 13.675781-15.949218 13.726562-26.464844v-10.558593h-64.351562c-2.828126 0-5.542969-1.125-7.542969-3.125l-21.566407-21.976563c-1.636718-1.925781-2.539062-4.371094-2.539062-6.898437v-42.582031l-7.722656.0625-88.277344 89.558593v119.039063l30.933594 30.316406 7.464844-7.628906c1.972656-2.007813 4.65625-3.160156 7.46875-3.199219 2.851562-.144531 5.621093.976563 7.574218 3.0625 6.011719 6.015625 14.214844 9.316406 22.71875 9.140625 7.253906-.082031 14.257813-2.65625 19.839844-7.285156v-94.484375h-5.589844l-19.519531 19.519531c-13.835937 13.847656-34.148437 19.003906-52.917969 13.429688l6.058594-20.460938c11.265625 3.339844 23.453125.25 31.765625-8.050781zm0 0"/><path d="m384 42.667969h27.585938l-27.585938-27.585938zm0 0"/><path d="m426.667969 64h-42.667969c-11.78125 0-21.332031-9.550781-21.332031-21.332031v-42.667969h-245.335938v230.644531l14.722657 14.6875h59.945312c11.765625.035157 21.296875 9.566407 21.332031 21.335938v10.664062c.019531 14.152344-5.589843 27.730469-15.597656 37.734375-10.007813 10.007813-23.582031 15.621094-37.734375 15.601563h-42.667969v117.332031h309.335938zm-202.667969-21.332031h106.667969v21.332031h-106.667969zm-42.667969 0h21.335938v21.332031h-21.335938zm-42.664062 0h21.332031v21.332031h-21.332031zm245.332031 330.664062h-245.332031v-21.332031h245.332031zm-42.667969-74.664062v21.332031h-85.332031v-21.332031zm-85.332031-42.667969v-21.332031h85.332031v21.332031zm128 64h-21.332031v-21.332031h21.332031zm0-64h-21.332031v-21.332031h21.332031zm0-64h-245.332031v-21.332031h245.332031zm0-64h-245.332031v-21.332031h245.332031zm0 0"/></svg>