<?xml version="1.0"?>
<svg xmlns="http://www.w3.org/2000/svg" xmlns:xlink="http://www.w3.org/1999/xlink" version="1.1" id="Capa_1" x="0px" y="0px" viewBox="0 0 48.88 48.88" style="enable-background:new 0 0 48.88 48.88;" xml:space="preserve" width="512px" height="512px" class=""><g><g>
	<path d="M45.785,23.586l-0.037-6.559c0-3.214-3.307-5.382-6.273-5.382H20.484l-2.879,8.373c0,0-10.541,0.039-13.05,0.039   s-2.46,1.419-2.46,1.419v6.314c0,0.023,0.003,0.051,0.003,0.074H0v5.309h6.058c-0.073-0.377-0.114-0.762-0.114-1.158   c0-3.438,2.788-6.225,6.223-6.225c3.438,0,6.228,2.787,6.228,6.225c0,0.396-0.043,0.781-0.112,1.158h14.462   c-0.068-0.377-0.109-0.764-0.109-1.158c0-3.438,2.789-6.225,6.225-6.225c3.438,0,6.223,2.787,6.223,6.225   c0,0.406-0.041,0.805-0.113,1.189l3.703,0.047C49.824,24.579,45.785,23.586,45.785,23.586z M27.697,20.094h-6.728l1.795-6.729   h4.933V20.094z M38.162,20.243h-8.818v-6.877h8.818V20.243z M12.307,27.413c-2.712,0-4.91,2.199-4.91,4.912s2.198,4.91,4.91,4.91   c2.713,0,4.911-2.197,4.911-4.91C17.219,29.612,15.02,27.413,12.307,27.413z M12.307,34.546c-1.226,0-2.218-0.994-2.218-2.221   c0-1.225,0.99-2.221,2.218-2.221c1.224,0,2.222,0.996,2.222,2.221C14.528,33.552,13.53,34.546,12.307,34.546z M38.771,27.413   c-2.713,0-4.912,2.199-4.912,4.912s2.199,4.91,4.912,4.91c2.711,0,4.91-2.197,4.91-4.91S41.482,27.413,38.771,27.413z    M38.771,34.546c-1.223,0-2.221-0.994-2.221-2.221c0-1.225,0.996-2.221,2.221-2.221s2.219,0.996,2.219,2.221   C40.99,33.552,39.996,34.546,38.771,34.546z" data-original="#000000" class="active-path" data-old_color="#000000" fill="#FFFFFF"/>
</g></g> </svg>
